<svg xmlns="http://www.w3.org/2000/svg" width="1600" height="1200" viewBox="0 0 1600 1200">
  <rect width="1600" height="1200" fill="#0b1220"/>
  <g opacity="0.15">
    <circle cx="400" cy="300" r="220" fill="#34d399"/>
    <circle cx="1200" cy="700" r="280" fill="#60a5fa"/>
  </g>
  <g transform="translate(250,260)">
    <rect x="0" y="0" rx="24" ry="24" width="520" height="360" fill="#111827" stroke="#1f2937"/>
    <rect x="30" y="40" rx="12" ry="12" width="460" height="60" fill="#0ea5e9"/>
    <rect x="30" y="120" rx="12" ry="12" width="420" height="24" fill="#374151"/>
    <rect x="30" y="160" rx="12" ry="12" width="380" height="24" fill="#374151"/>
    <rect x="30" y="200" rx="12" ry="12" width="420" height="24" fill="#374151"/>
    <rect x="30" y="240" rx="12" ry="12" width="300" height="24" fill="#374151"/>
    <circle cx="460" cy="300" r="26" fill="#0ea5e9"/>
  </g>
  <g transform="translate(950,520)">
    <rect x="0" y="0" rx="24" ry="24" width="400" height="260" fill="#111827" stroke="#1f2937"/>
    <rect x="24" y="36" rx="12" ry="12" width="200" height="24" fill="#34d399"/>
    <rect x="24" y="80" rx="12" ry="12" width="320" height="20" fill="#374151"/>
    <rect x="24" y="112" rx="12" ry="12" width="300" height="20" fill="#374151"/>
    <rect x="24" y="144" rx="12" ry="12" width="260" height="20" fill="#374151"/>
  </g>
</svg>
