<svg xmlns="http://www.w3.org/2000/svg" width="1600" height="1200" viewBox="0 0 1600 1200">
  <rect width="1600" height="1200" fill="#0b1220"/>
  <g opacity="0.12">
    <circle cx="420" cy="360" r="240" fill="#a78bfa"/>
    <circle cx="1180" cy="760" r="260" fill="#60a5fa"/>
  </g>
  <g transform="translate(300,280)">
    <rect x="0" y="0" rx="24" ry="24" width="420" height="320" fill="#111827" stroke="#1f2937"/>
    <circle cx="110" cy="110" r="60" fill="#0ea5e9"/>
    <rect x="200" y="70" rx="10" ry="10" width="180" height="20" fill="#374151"/>
    <rect x="200" y="110" rx="10" ry="10" width="160" height="20" fill="#374151"/>
    <rect x="40" y="200" rx="10" ry="10" width="340" height="18" fill="#374151"/>
    <rect x="40" y="230" rx="10" ry="10" width="300" height="18" fill="#374151"/>
  </g>
  <g transform="translate(900,460)">
    <rect x="0" y="0" rx="20" ry="20" width="380" height="240" fill="#111827" stroke="#1f2937"/>
    <rect x="28" y="36" rx="12" ry="12" width="220" height="24" fill="#34d399"/>
    <rect x="28" y="80" rx="12" ry="12" width="320" height="18" fill="#374151"/>
    <rect x="28" y="110" rx="12" ry="12" width="300" height="18" fill="#374151"/>
  </g>
</svg>
