<svg xmlns="http://www.w3.org/2000/svg" width="1200" height="900" viewBox="0 0 1200 900">
  <rect width="1200" height="900" fill="#0b1220"/>
  <rect x="120" y="120" width="960" height="560" rx="24" fill="#111827" stroke="#1f2937"/>
  <rect x="170" y="170" width="300" height="40" rx="10" fill="#0ea5e9"/>
  <rect x="170" y="240" width="860" height="18" rx="9" fill="#374151"/>
  <rect x="170" y="270" width="800" height="18" rx="9" fill="#374151"/>
  <rect x="170" y="300" width="700" height="18" rx="9" fill="#374151"/>
  <g transform="translate(170,360)"><rect width="380" height="260" rx="16" fill="#0ea5e9"/><polyline points="20,200 90,150 160,170 230,120 300,140 360,80" fill="none" stroke="#fff" stroke-width="6"/></g>
  <g transform="translate(570,360)"><rect width="460" height="260" rx="16" fill="#111827" stroke="#1f2937"/><rect x="30" y="40" width="120" height="20" rx="8" fill="#34d399"/><rect x="30" y="80" width="380" height="16" rx="8" fill="#374151"/><rect x="30" y="110" width="340" height="16" rx="8" fill="#374151"/></g>
</svg>
