<svg xmlns="http://www.w3.org/2000/svg" width="1200" height="900" viewBox="0 0 1200 900">
  <rect width="1200" height="900" fill="#0b1220"/>
  <rect x="120" y="160" width="960" height="520" rx="24" fill="#111827" stroke="#1f2937"/>
  <g transform="translate(170,210)">
    <rect width="860" height="40" rx="10" fill="#0ea5e9"/>
    <g transform="translate(0,80)">
      <rect width="240" height="200" rx="16" fill="#111827" stroke="#1f2937"/>
      <rect x="20" y="20" width="200" height="20" rx="8" fill="#374151"/>
      <rect x="20" y="60" width="160" height="20" rx="8" fill="#374151"/>
      <rect x="20" y="100" width="140" height="20" rx="8" fill="#374151"/>
    </g>
    <g transform="translate(280,80)">
      <rect width="260" height="200" rx="16" fill="#34d399"/>
      <polyline points="20,160 60,120 100,130 140,90 180,110 220,70" fill="none" stroke="#0b1220" stroke-width="6"/>
    </g>
    <g transform="translate(560,80)">
      <rect width="300" height="200" rx="16" fill="#111827" stroke="#1f2937"/>
      <rect x="20" y="20" width="120" height="20" rx="8" fill="#374151"/>
      <rect x="20" y="60" width="200" height="20" rx="8" fill="#374151"/>
    </g>
  </g>
</svg>
